<?xml version="1.0" encoding="UTF-8" standalone="no"?>
<svg
   xmlns:osb="http://www.openswatchbook.org/uri/2009/osb"
   xmlns:dc="http://purl.org/dc/elements/1.1/"
   xmlns:cc="http://creativecommons.org/ns#"
   xmlns:rdf="http://www.w3.org/1999/02/22-rdf-syntax-ns#"
   xmlns:svg="http://www.w3.org/2000/svg"
   xmlns="http://www.w3.org/2000/svg"
   xmlns:sodipodi="http://sodipodi.sourceforge.net/DTD/sodipodi-0.dtd"
   xmlns:inkscape="http://www.inkscape.org/namespaces/inkscape"
   height="32"
   width="32"
   version="1"
   viewBox="0 0 32 32"
   id="svg4"
   sodipodi:docname="app.svg"
   inkscape:version="0.92.3 (2405546, 2018-03-11)">
  <metadata
     id="metadata10">
    <rdf:RDF>
      <cc:Work
         rdf:about="">
        <dc:format>image/svg+xml</dc:format>
        <dc:type
           rdf:resource="http://purl.org/dc/dcmitype/StillImage" />
        <dc:title></dc:title>
      </cc:Work>
    </rdf:RDF>
  </metadata>
  <defs
     id="defs8">
    <linearGradient
       id="linearGradient834"
       osb:paint="solid">
      <stop
         style="stop-color:#000000;stop-opacity:1;"
         offset="0"
         id="stop832" />
    </linearGradient>
  </defs>
  <sodipodi:namedview
     pagecolor="#ffffff"
     bordercolor="#666666"
     borderopacity="1"
     objecttolerance="10"
     gridtolerance="10"
     guidetolerance="10"
     inkscape:pageopacity="0"
     inkscape:pageshadow="2"
     inkscape:window-width="1920"
     inkscape:window-height="1173"
     id="namedview6"
     showgrid="false"
     inkscape:zoom="14.75"
     inkscape:cx="4.557732"
     inkscape:cy="13.106657"
     inkscape:window-x="0"
     inkscape:window-y="27"
     inkscape:window-maximized="1"
     inkscape:current-layer="svg4" />
  <path
     style="stroke-width:0.11236299;fill-opacity:1;stroke:none;stroke-opacity:1;fill-rule:nonzero;fill:#ffffff"
     d="m 16.390625,0.00195313 c -1.131828,-0.01195001 -1.28436,0.01277312 -1.798828,0.28320312 -0.671778,0.35313 -1.28432,0.97109935 -1.646485,1.66210935 L 12.679688,2.453125 v 6.2890625 c 0,7.1083305 -0.02264,6.9066775 0.888671,7.8984375 0.665216,0.72392 1.382112,1.027391 2.427735,1.025391 1.364449,-0.0022 2.356651,-0.61025 3.017578,-1.84961 l 0.298828,-0.560547 0.05664,-4.009765 0.05664,-4.0097659 0.492188,0.2207031 c 2.070397,0.9266001 4.166219,3.2197658 4.919922,5.3847658 0.790884,2.2718 0.616845,5.151097 -0.4375,7.242187 -1.21106,2.40192 -3.487005,4.285708 -5.986329,4.955078 -1.112467,0.297931 -3.724978,0.298401 -4.833984,0 -1.338874,-0.36025 -2.86605,-1.21697 -3.892578,-2.18164 -1.956873,-1.83896 -2.8759714,-3.812591 -2.9902344,-6.425781 -0.119527,-2.73358 0.569114,-4.685702 2.375,-6.7324222 0.9716324,-1.1012102 1.2159034,-1.6308952 1.2207034,-2.640625 0.005,-1.05909 -0.3179605,-1.7959625 -1.0976565,-2.5078126 -0.68523,-0.6256 -1.1935758,-0.8066875 -2.2617187,-0.8046874 -1.0676001,0.00151 -1.6987813,0.3143343 -2.6289063,1.3027343 -2.141019,2.27517 -3.57352487,5.1305769 -4.10742188,8.1855469 -0.25861499,1.47997 -0.26405762,4.011466 -0.009766,5.447266 0.203499,1.149 0.9286366,3.406262 1.3867188,4.320312 1.6810439,3.35435 4.4129457,6.020885 7.6992187,7.515625 1.6763365,0.76247 3.3399845,1.224803 5.0937505,1.414063 1.991974,0.21496 4.735184,-0.08787 6.632812,-0.732422 5.670723,-1.92613 9.69475,-6.55163 10.794922,-12.40625 0.273868,-1.4575 0.272546,-4.163025 -0.002,-5.615235 C 31.572993,12.013964 30.880789,9.8920588 30.423828,8.9804688 29.024819,6.1895888 26.805484,3.7686056 24.259766,2.2597656 21.865353,0.84060562 19.040162,0.02995312 16.390625,0.00195313 Z"
     id="path841" />
</svg>
