<svg width="32" height="32" version="1" viewBox="0 0 32 32" xmlns="http://www.w3.org/2000/svg" xmlns:osb="http://www.openswatchbook.org/uri/2009/osb"><path d="m16.391 0.0019531c-1.1318-0.01195-1.2844 0.012773-1.7988 0.2832-0.67178 0.35313-1.2843 0.9711-1.6465 1.6621l-0.26562 0.50586v6.2891c0 7.1083-0.02264 6.9067 0.88867 7.8984 0.66522 0.72392 1.3821 1.0274 2.4277 1.0254 1.3644-0.0022 2.3567-0.61025 3.0176-1.8496l0.29883-0.56055 0.11328-8.0195 0.49219 0.2207c2.0704 0.9266 4.1662 3.2198 4.9199 5.3848 0.79088 2.2718 0.61684 5.1511-0.4375 7.2422-1.2111 2.4019-3.487 4.2857-5.9863 4.9551-1.1125 0.29793-3.725 0.2984-4.834 0-1.3389-0.36025-2.866-1.217-3.8926-2.1816-1.9569-1.839-2.876-3.8126-2.9902-6.4258-0.11953-2.7336 0.56911-4.6857 2.375-6.7324 0.97163-1.1012 1.2159-1.6309 1.2207-2.6406 5e-3 -1.0591-0.31796-1.796-1.0977-2.5078-0.68523-0.6256-1.1936-0.80669-2.2617-0.80469-1.0676 0.00151-1.6988 0.31433-2.6289 1.3027-2.141 2.2752-3.5735 5.1306-4.1074 8.1855-0.25861 1.48-0.26406 4.0115-0.009766 5.4473 0.2035 1.149 0.92864 3.4063 1.3867 4.3203 1.681 3.3544 4.4129 6.0209 7.6992 7.5156 1.6763 0.76247 3.34 1.2248 5.0938 1.4141 1.992 0.21496 4.7352-0.08787 6.6328-0.73242 5.6707-1.9261 9.6948-6.5516 10.795-12.406 0.27387-1.4575 0.27255-4.163-2e-3 -5.6152-0.21993-1.1638-0.91213-3.2857-1.3691-4.1973-1.399-2.7909-3.6183-5.2119-6.1641-6.7207-2.3944-1.4192-5.2196-2.2298-7.8691-2.2578z" fill="#fff"/></svg>
